<?xml version="1.0" encoding="utf-8"?>
<!-- Generator: Adobe Illustrator 23.1.1, SVG Export Plug-In . SVG Version: 6.00 Build 0)  -->
<svg version="1.1" id="Capa_1" xmlns="http://www.w3.org/2000/svg" xmlns:xlink="http://www.w3.org/1999/xlink" x="0px" y="0px"
	 viewBox="0 0 512 512" style="enable-background:new 0 0 512 512;" xml:space="preserve">
<style type="text/css">
	.st0{fill:#D7802C;}
</style>
<g>
	<path class="st0" d="M505,289.2l-118.8-36.7v-57.9c0-3-1.4-5.9-3.7-7.8L266,93.3V61.6h13.3c5.5,0,10-4.5,10-10s-4.5-10-10-10H266
		v-13c0-5.5-4.5-10-10-10c-5.5,0-10,4.5-10,10v13h-13.3c-5.5,0-10,4.5-10,10s4.5,10,10,10H246v31.7l-116.4,93.4
		c-2.4,1.9-3.7,4.8-3.7,7.8v57.9L7,289.2c-4.2,1.3-7,5.2-7,9.6v184.7c0,5.5,4.5,10,10,10h492c5.5,0,10-4.5,10-10V298.7
		C512,294.3,509.1,290.5,505,289.2L505,289.2z M20,306.1l105.8-32.7v200H20V306.1z M145.8,199.3L256,110.9l110.2,88.4v274h-46.7
		v-86.5c0-35-28.5-63.4-63.5-63.4s-63.5,28.5-63.5,63.4v86.5h-46.7L145.8,199.3z M212.5,473.4v-86.5c0-23.9,19.5-43.4,43.5-43.4
		s43.5,19.5,43.5,43.4v86.5H212.5z M492,473.4H386.2v-200L492,306.1V473.4z"/>
	<path class="st0" d="M420.2,449.4H458c5.5,0,10-4.5,10-10V331.2c0-4.4-2.9-8.3-7-9.6l-37.8-11.7c-3-0.9-6.3-0.4-8.9,1.5
		c-2.6,1.9-4.1,4.9-4.1,8v119.9C410.2,444.9,414.6,449.4,420.2,449.4L420.2,449.4z M430.2,333l17.8,5.5v90.8h-17.8V333z"/>
	<path class="st0" d="M97.8,311.4c-2.6-1.9-5.9-2.4-8.9-1.5L51,321.6c-4.2,1.3-7,5.2-7,9.6v108.2c0,5.5,4.5,10,10,10h37.8
		c5.5,0,10-4.5,10-10V319.5C101.8,316.3,100.3,313.3,97.8,311.4L97.8,311.4z M81.8,429.4H64v-90.8l17.8-5.5V429.4z"/>
	<path class="st0" d="M217.6,291.2h76.8c5.5,0,10-4.5,10-10v-70.1c0-26.7-21.7-48.4-48.4-48.4s-48.4,21.7-48.4,48.4v70.1
		C207.6,286.8,212.1,291.2,217.6,291.2L217.6,291.2z M227.6,211.1c0-15.6,12.7-28.4,28.4-28.4s28.4,12.7,28.4,28.4v60.1h-56.8
		L227.6,211.1z"/>
</g>
</svg>
