<?xml version="1.0" encoding="utf-8"?>
<!-- Generator: Adobe Illustrator 23.1.1, SVG Export Plug-In . SVG Version: 6.00 Build 0)  -->
<svg version="1.1" id="Capa_1" xmlns="http://www.w3.org/2000/svg" xmlns:xlink="http://www.w3.org/1999/xlink" x="0px" y="0px"
	 viewBox="0 0 480 480" style="enable-background:new 0 0 480 480;" xml:space="preserve">
<style type="text/css">
	.st0{fill:#D7802C;}
</style>
<path class="st0" d="M366.9,134.8L366.9,134.8l-6.6-21.9c-6.3-18.7-23.9-30.5-42.7-30.5c-4.8,0-9.7,0.8-14.4,2.4
	c-13.1,4.5-23.7,15-28.2,28.2l-6.6,21.8c-5.5,18.3-6.6,37.1-3.3,55.8c3,15.4,12.6,28.3,26.3,35.5l1.4,0.7l-0.1,1.6l-7.5,166.5l0,0.1
	c-0.9,8.4,1.9,17,7.7,23.6c6,6.6,14.3,10.5,23.3,10.9c9,0.4,17.6-2.7,24.2-8.7l2.2-2.2c5.7-6.3,8.4-14.6,7.6-22.9l0-0.1l-7.6-168.6
	l1.4-0.7c13.7-7.3,23.3-20.2,26.3-35.5C373.5,172,372.3,152.7,366.9,134.8z M354.8,187.8L354.8,187.8c-2.4,12.4-11.2,22.6-23.1,26.7
	c-3,1.1-5.1,4.3-5,7.7l7.9,174.6c0.4,4.1-1,8.3-3.8,11.2c-3.6,3.6-8.4,5.4-13.1,5.4c-4.7,0-9.4-1.8-13-5.4l-0.1-0.1
	c-2.9-3.2-4.3-7.7-3.7-12l7.8-173.9c0.2-3.5-1.8-6.4-5.1-7.6c-11.9-4.2-20.8-14.4-23.1-26.6c-2.8-16.3-1.8-33,2.9-48.4l6.6-22
	c5.6-15.1,22.6-22.9,37.7-17.4c8.1,3,14.4,9.3,17.4,17.4l0,0.1l6.6,21.9C356.5,154.8,357.6,171.5,354.8,187.8z M208.9,82.5
	c-4.3,0-7.9,3.5-7.9,7.9v89.9l-28.8,28.8c-1.6,1.6-2.4,3.8-2.3,5.9l9.1,181.3c0.3,4.5-1.4,9.1-4.6,12.5c-6.7,6.7-17.5,6.8-24.2,0.2
	l-0.1-0.1c-3.3-3.4-4.9-7.9-4.6-12.5l9.1-181.1c0.1-2.3-0.7-4.5-2.2-6l-28.8-28.8V90.4c0-4.3-3.5-7.9-7.9-7.9s-7.9,3.5-7.9,7.9v93.2
	c0,2.1,0.8,4.2,2.2,5.6l28.6,28.6l-8.9,177.6c-0.4,8.7,2.6,17,8.4,23.4c5.8,6.4,13.8,10.2,22.5,10.6c8.7,0.4,17-2.6,23.4-8.4
	c6.4-5.8,10.2-13.8,10.6-22.4v-3.2l-8.9-177.7l28.6-28.6c1.5-1.5,2.2-3.4,2.2-5.6V90.2C216.8,86,213.2,82.5,208.9,82.5z M146.8,181
	c4.3,0,7.9-3.5,7.9-7.9V90.4c0-4.3-3.5-7.9-7.9-7.9S139,86,139,90.4v82.8C139,177.5,142.5,181,146.8,181z M177.9,181
	c4.3,0,7.9-3.5,7.9-7.9V90.4c0-4.3-3.5-7.9-7.9-7.9S170,86,170,90.4v82.8C170,177.5,173.6,181,177.9,181z"/>
</svg>
