<?xml version="1.0" encoding="utf-8"?>
<!-- Generator: Adobe Illustrator 23.1.1, SVG Export Plug-In . SVG Version: 6.00 Build 0)  -->
<svg version="1.1" id="horse_x5F_pose4" xmlns="http://www.w3.org/2000/svg" xmlns:xlink="http://www.w3.org/1999/xlink" x="0px"
	 y="0px" viewBox="0 0 512 512" style="enable-background:new 0 0 512 512;" xml:space="preserve">
<style type="text/css">
	.st0{fill:#D7802C;}
</style>
<g>
	<path class="st0" d="M460.8,341.6L450,325.3c-8.9-13.3-16.4-38-16.4-54V241c0-22-17.9-39.9-39.9-39.9h-29.3c-0.1,0-0.1-0.1-0.2-0.1
		c-20.1-14.8-46.9-12.9-61.1-10.5c-6.3,1.1-12.1,1.6-17.6,1.6h-38.9c-6.8,0-13.4-1.1-19.8-3.2l-14.7-4.9c-4-1.3-6.7-4.9-7.1-9.1
		c-3.3-38-22.3-65.5-37.6-81.8c-7.7-8.2-17.3-14.5-28-18.4c0.8-6-0.6-10.8-2.3-14c-6.1-11.9-21-16-22.7-16.4c-2.1-0.5-4.2,0-5.9,1.3
		c-1.7,1.3-2.6,3.3-2.6,5.5l0.2,9.4c-2.3-3.2-5.8-6.3-10.8-8.8c-3.4-1.7-7.5-0.3-9.2,3.1c-1.7,3.4-0.3,7.5,3.1,9.2
		c6.7,3.3,7.9,8.1,8.1,10.5c-8.6,5.1-14.5,14.2-15.2,24.7l-28.7,45.1c-6.3,9.9-3.5,23.2,6.3,29.7c7.4,5,17,4.9,24.4-0.2
		c0.2-0.2,0.5-0.4,0.7-0.6l30.8-28c0.7,0.3,1.2,0.8,1.8,1.5c6.4,7.8,4.8,34.1,1.6,50.6c-10.6,32.2-6.1,55.8,3,72.3l-58.4,13
		c-2.4,0.5-4.4,2.4-5.1,4.8c-0.7,2.4,0,5,1.7,6.7l35.1,35c-0.3,0.4-0.7,0.9-0.9,1.3l-35.4,70.8c-0.6,1.2-0.8,2.6-0.7,3.9
		c-0.2,1.7,0.2,3.5,1.3,5L80,437.3c1.3,1.8,3.4,2.7,5.5,2.7c1.4,0,2.9-0.4,4.1-1.4c3-2.3,3.6-6.5,1.4-9.6L73,405.3l40-48l8.6-1.9
		l9.4,9.4c1.3,1.3,3.1,2,4.8,2s3.5-0.7,4.8-2c2.7-2.7,2.7-7,0-9.7l-3.3-3.3l27.1-6c18.4-4.1,31.3-20.1,31.3-39v-2.2
		c26.8,3.2,50,3.1,69.1-0.4c4.4,18.3,15.4,34.7,25.2,46.5l-15.7,5.6c-0.1,0-0.1,0.1-0.2,0.1c-0.2,0.1-0.5,0.2-0.7,0.3
		c-0.2,0.1-0.4,0.2-0.5,0.3c-0.2,0.1-0.4,0.3-0.5,0.4c-0.2,0.1-0.4,0.3-0.5,0.4c-0.2,0.1-0.3,0.3-0.4,0.5c-0.1,0.2-0.3,0.3-0.4,0.5
		c-0.1,0.2-0.2,0.4-0.3,0.6c-0.1,0.2-0.2,0.4-0.3,0.6c-0.1,0.2-0.2,0.4-0.2,0.6c-0.1,0.2-0.1,0.4-0.2,0.6c0,0.2-0.1,0.4-0.1,0.6
		c0,0.2-0.1,0.5-0.1,0.8c0,0.1,0,0.1,0,0.2v36.4c0,3.8,3.1,6.8,6.8,6.8s6.8-3.1,6.8-6.8v-31.6l16.5-5.9c1.6,1.6,3,3,4.2,4.1
		L288,415.1l-34.4,41.6c-2.3,2.8-2,6.9,0.7,9.4c1.3,1.2,3,1.8,4.6,1.8c1.8,0,3.5-0.7,4.8-2l79.7-79.7c1.8-1.8,2.5-4.5,1.6-7
		l-7.9-23.7l4.9-8.9l39.2-13.9c2.3-0.8,4-2.8,4.4-5.1c0.5-2.4-0.4-4.8-2.2-6.4l-18.3-16.2l17.6-31.6c0-0.1,0.1-0.2,0.1-0.3
		c1.1-2.3,2.1-4.6,2.9-7.1v30.7c0,41.8,65.2,54.9,68,55.4c0.4,0.1,0.9,0.1,1.3,0.1c2.3,0,4.4-1.1,5.7-3
		C462.4,346.9,462.4,343.9,460.8,341.6z M106.5,321L89,303.5h42.9L106.5,321z M138.2,289.9h-45l37.1-8.2
		C132.8,284.7,135.5,287.5,138.2,289.9z M365.8,323.7l-13.7,4.9l6.4-11.4L365.8,323.7z M370.8,266.8l-47,84.7
		c-0.9,1.7-1.1,3.7-0.5,5.5l7.5,22.6l-24.9,24.9l12.6-38.6c0.9-2.6,0-5.5-2.1-7.3c-0.3-0.3-35-30.1-39.4-63.3
		c-0.3-1.9-1.3-3.6-2.9-4.7c-1.1-0.8-2.5-1.2-3.9-1.2c-0.5,0-1.1,0.1-1.6,0.2c-20.3,4.9-46.8,5.1-78.8,0.6c-2-0.3-3.9,0.3-5.4,1.6
		c-1.5,1.3-2.3,3.2-2.3,5.2v10c0,12.4-8.5,23-20.6,25.7l-53.8,11.9c-1.5,0.3-2.8,1.1-3.8,2.3l-6.6,7.9l8.3-16.7l54.9-37.6
		c2-1.3,3.1-3.6,3-6c-0.1-2.4-1.5-4.5-3.5-5.6c-14.6-8-46.5-32.5-28-87.8c0.1-0.3,0.2-0.5,0.2-0.8c0.9-4.7,8.8-46.3-4.4-62.3
		c-3.7-4.5-8.7-6.9-14.6-6.9c-1.7,0-3.3,0.6-4.6,1.8l-32.8,29.9c-2.7,1.7-6,1.6-8.7-0.1c-3.6-2.4-4.6-7.3-2.3-11l29.7-46.7
		c0.7-1.1,1.1-2.4,1.1-3.7c0-9.7,7.9-17.6,17.6-17.6c1.8,0,3.6-0.7,4.9-2c1.3-1.3,2-3.1,2-4.9l-0.3-15.1c2.1,1.4,4.1,3.2,5.2,5.4
		c1.4,2.7,1.3,5.9-0.2,9.7c-0.7,1.8-0.6,3.8,0.3,5.6c0.9,1.7,2.5,3,4.3,3.5c10.9,2.9,20.6,8.7,28.1,16.6c13.9,14.8,31,39.5,34,73.6
		c0.8,9.6,7.3,17.8,16.4,20.9l14.6,4.9c7.8,2.6,15.9,3.9,24.2,3.9h38.9c6.3,0,12.9-0.6,19.9-1.8c12-2.1,34.7-3.7,50.7,8.1
		c9.8,7.2,15.9,18.7,18,34.3C375.2,253.3,374,260.4,370.8,266.8z M426.7,328.5c-18-8.8-27.2-19.5-27.2-31.8v-61.2
		c0-7.9-3.3-15.4-8.9-20.7h3.1c14.5,0,26.3,11.8,26.3,26.3v30.3c0,18.8,8.2,45.9,18.6,61.6l0.6,0.9
		C435.2,332.3,430.9,330.6,426.7,328.5L426.7,328.5z"/>
</g>
</svg>
