<?xml version="1.0" encoding="utf-8"?>
<!-- Generator: Adobe Illustrator 23.1.1, SVG Export Plug-In . SVG Version: 6.00 Build 0)  -->
<svg version="1.1" id="Layer_1" xmlns="http://www.w3.org/2000/svg" xmlns:xlink="http://www.w3.org/1999/xlink" x="0px" y="0px"
	 viewBox="0 0 512 512" style="enable-background:new 0 0 512 512;" xml:space="preserve">
<style type="text/css">
	.st0{fill:#D7802C;}
</style>
<path class="st0" d="M151.8,373.6l75.9-75.9l84.6-18.2c44.2-9.5,87-24.7,127.4-45c20.1-10.1,36.9-25.6,48.6-44.7
	c11.8-19.1,18-41.1,18-63.6C506.2,59.4,451.9,5,385,5c-22.5,0-44.4,6.2-63.6,18c-19.1,11.8-34.6,28.6-44.7,48.6
	c-9.9,19.6-18.7,40.1-26,60.8c-7.7,21.7-14.1,44.1-19,66.6l-18.2,84.6l-75.9,75.9h-42L7.1,447.4l56.8,56.8l87.9-88.6V373.6z
	 M407.9,27.3l6.4,2c25.5,7.7,47.4,25.7,60,49.2l3.9,7.4h-70.4V27.3z M407.9,105.8h76.4l0.7,4.2c0.9,5.3,1.3,10.8,1.3,16.2
	c0,10.6-1.6,21.1-4.8,31.1l-1.1,3.5h-72.5V105.8z M407.9,180.7h63.2l-6.4,8.1c-9.2,11.7-20.7,21.1-34.1,27.8
	c-5,2.5-10.2,5.1-15.6,7.5l-7.1,3.3V180.7z M333,39.2l2.6-1.4c14.3-8,30.7-12.4,47.3-12.8l5.1-0.1v61H333V39.2z M333,105.8h54.9
	v54.9H333V105.8z M333,180.7h54.9v55l-3.2,1.2c-14.9,5.8-30.2,10.9-45.4,15.2L333,254V180.7z M264.4,154.2
	c1.7-5.2,3.4-10.2,5.1-15.1l0,0c7.1-19.9,15.5-39.6,25.1-58.5c2.7-5.3,5.9-10.5,9.4-15.2l9-12.1v107.4h-50.7L264.4,154.2z
	 M251.3,203.2c1.3-6,2.8-12.3,4.4-18.7l1-3.8H313v78.1l-5,1.1l-72.4,15.6L251.3,203.2z M131.8,407.6l-67.9,67.5l-27.8-27.8
	l67.9-67.9h27.8V407.6z"/>
</svg>
