<?xml version="1.0" encoding="utf-8"?>
<!-- Generator: Adobe Illustrator 23.1.1, SVG Export Plug-In . SVG Version: 6.00 Build 0)  -->
<svg version="1.1" id="Capa_1" xmlns="http://www.w3.org/2000/svg" xmlns:xlink="http://www.w3.org/1999/xlink" x="0px" y="0px"
	 viewBox="0 0 512 512" style="enable-background:new 0 0 512 512;" xml:space="preserve">
<style type="text/css">
	.st0{fill:#D7802C;}
</style>
<g>
	<g>
		<path class="st0" d="M256,0C114.6,0,0,114.6,0,256s114.6,256,256,256s256-114.6,256-256S397.4,0,256,0z M96,100.2
			c50.3,35.9,80.1,94,80,155.8c0.2,61.8-29.7,119.9-80,155.8C11.4,325.1,11.4,186.9,96,100.2z M256,480
			c-49.1,0-96.9-16.3-135.8-46.2c55.5-42.2,88-108,87.8-177.8c0.1-69.7-32.5-135.4-88-177.6c80.1-61.9,191.9-61.9,272,0
			c-98.2,75.3-116.7,215.9-41.5,314.1c11.9,15.6,25.9,29.5,41.5,41.5C353,463.9,305.2,480.1,256,480z M416,412v-0.2
			c-86.1-61.2-106.2-180.5-45.1-266.6c12.4-17.4,27.6-32.7,45.1-45.1C500.7,186.9,500.7,325.3,416,412z"/>
	</g>
</g>
</svg>
