<?xml version="1.0" encoding="utf-8"?>
<!-- Generator: Adobe Illustrator 23.1.1, SVG Export Plug-In . SVG Version: 6.00 Build 0)  -->
<svg version="1.1" id="Capa_1" xmlns="http://www.w3.org/2000/svg" xmlns:xlink="http://www.w3.org/1999/xlink" x="0px" y="0px"
	 viewBox="0 0 512 512" style="enable-background:new 0 0 512 512;" xml:space="preserve">
<style type="text/css">
	.st0{fill:#D7802C;}
</style>
<g>
	<g>
		<path class="st0" d="M256,0C114.5,0,0,115.6,0,256c0,140.9,115.1,256,256,256c141,0,256-115,256-256C512,115.2,397,0,256,0z
			 M282.9,31.6c32.3,3.8,62.5,14.5,89.2,30.6c-74.2,38.9-123.3,101.2-130.5,184.4c-32.6,16.5-61.4,24.3-90.2,24.4
			C145.7,172.3,196.4,79.4,282.9,31.6z M229.1,31.6c-69.4,55.3-112,142.3-107.8,237.3c-32.4-4.6-63.5-16.5-90.2-34.8
			C41.3,128.6,124.3,44.1,229.1,31.6z M61.9,371.7C43.8,341.3,32.5,306.4,30.4,269c32.1,18.3,68.5,29.2,105.8,31.5c0,0,0,0,0,0
			c37.4,2.3,74.1-4,121-28.2c22.2,8.2,42.3,21.2,59.9,38.4C277.6,361,215.6,391,151,391C120,391,89.3,384.3,61.9,371.7z M256,482
			c-62.9,0-119.9-25.8-160.9-67.4c18.2,4.2,37,6.4,55.9,6.4c72.5,0,140.9-32.5,186.3-87.5c21.7,28.7,38.2,65.2,48.1,107.7
			C348.7,466.9,304.1,482,256,482z M411,420.3c-20.8-75.7-65.8-145.7-139.1-174.6c2.4-23.5,8.5-44.2,17.3-62.3
			c82.5,12.2,152.4,69.5,180.1,147.6C457.1,365.3,436.9,395.8,411,420.3z M305.6,155.8c25.5-35.2,61.2-58.6,94.3-73.9
			C450,123.4,482,186,482,256c0,9.2-0.6,18.2-1.6,27.1C444.2,217.8,380,170.5,305.6,155.8z"/>
	</g>
</g>
</svg>
